<svg width="67" height="67" viewBox="0 0 67 67" fill="none" xmlns="http://www.w3.org/2000/svg">
<path d="M55.6511 33.774V47.4592C55.6511 52.6202 55.6511 55.2006 54.0477 56.804C52.4443 58.4074 49.8639 58.4074 44.7029 58.4074H18.701C14.9219 58.4074 11.8584 55.3438 11.8584 51.5648M55.6511 33.774C55.6511 38.935 55.6511 41.5154 54.0477 43.1188C52.4443 44.7222 49.8639 44.7222 44.7029 44.7222H18.701C14.9219 44.7222 11.8584 47.7857 11.8584 51.5648M55.6511 33.774V20.0888C55.6511 14.9278 55.6511 12.3473 54.0477 10.744C52.4443 9.14062 49.8639 9.14062 44.7029 9.14062H22.8066C17.6455 9.14062 15.065 9.14062 13.4617 10.744C11.8584 12.3473 11.8584 14.9278 11.8584 20.0888V51.5648" stroke="white" stroke-width="1.77538"/>
<path d="M25.5439 28.3022L29.0827 31.8409C30.1515 32.9097 31.8846 32.9097 32.9534 31.8409L41.9662 22.8281" stroke="white" stroke-width="1.77538" stroke-linecap="round"/>
</svg>
