<svg width="65" height="64" viewBox="0 0 65 64" fill="none" xmlns="http://www.w3.org/2000/svg">
<path d="M51.0974 8.07812H14.0733C11.1522 8.07812 8.78418 10.4462 8.78418 13.3673V50.3913C8.78418 53.3124 11.1522 55.6804 14.0733 55.6804H51.0974C54.0185 55.6804 56.3865 53.3124 56.3865 50.3913V13.3673C56.3865 10.4462 54.0185 8.07812 51.0974 8.07812Z" stroke="#EEF2F7" stroke-width="1.77538" stroke-linecap="round" stroke-linejoin="round"/>
<path d="M29.9404 23.9456H40.5187C41.9215 23.9456 43.2668 23.3883 44.2587 22.3964C45.2506 21.4045 45.8079 20.0592 45.8079 18.6564V8.07812" stroke="#EEF2F7" stroke-width="1.77538" stroke-linecap="round" stroke-linejoin="round"/>
<path d="M24.6515 29.2385C27.5726 29.2385 29.9406 26.8704 29.9406 23.9493C29.9406 21.0282 27.5726 18.6602 24.6515 18.6602C21.7303 18.6602 19.3623 21.0282 19.3623 23.9493C19.3623 26.8704 21.7303 29.2385 24.6515 29.2385Z" stroke="#EEF2F7" stroke-width="1.77538" stroke-linecap="round" stroke-linejoin="round"/>
<path d="M19.3623 55.6838V45.1056C19.3623 43.7028 19.9196 42.3575 20.9115 41.3656C21.9034 40.3737 23.2487 39.8164 24.6515 39.8164H35.2297" stroke="#EEF2F7" stroke-width="1.77538" stroke-linecap="round" stroke-linejoin="round"/>
<path d="M40.5186 45.1056C43.4398 45.1056 45.8078 42.7376 45.8078 39.8165C45.8078 36.8954 43.4398 34.5273 40.5186 34.5273C37.5975 34.5273 35.2295 36.8954 35.2295 39.8165C35.2295 42.7376 37.5975 45.1056 40.5186 45.1056Z" stroke="#EEF2F7" stroke-width="1.77538" stroke-linecap="round" stroke-linejoin="round"/>
</svg>
