<svg width="65" height="64" viewBox="0 0 65 64" fill="none" xmlns="http://www.w3.org/2000/svg">
<path d="M27.125 20.6438C27.1257 20.2915 27.2201 19.9457 27.3987 19.6421C27.5773 19.3384 27.8335 19.0878 28.1411 18.916C28.4486 18.7441 28.7964 18.6573 29.1486 18.6645C29.5008 18.6716 29.8448 18.7724 30.1451 18.9565L39.8348 24.9042C40.1236 25.0816 40.3621 25.3302 40.5275 25.626C40.693 25.9218 40.7798 26.2551 40.7798 26.5941C40.7798 26.933 40.693 27.2663 40.5275 27.5622C40.3621 27.858 40.1236 28.1065 39.8348 28.284L30.1451 34.2342C29.8444 34.4186 29.4999 34.5194 29.1473 34.5264C28.7946 34.5333 28.4465 34.446 28.1388 34.2735C27.8311 34.1011 27.5749 33.8497 27.3967 33.5453C27.2185 33.2409 27.1247 32.8945 27.125 32.5417V20.6438Z" stroke="#EDF4FC" stroke-width="1.77538" stroke-linecap="round" stroke-linejoin="round"/>
<path d="M19.1914 55.6836H45.6371" stroke="#EDF4FC" stroke-width="1.77538" stroke-linecap="round" stroke-linejoin="round"/>
<path d="M53.5711 8.07812H11.2579C8.33678 8.07812 5.96875 10.4462 5.96875 13.3673V39.813C5.96875 42.7341 8.33678 45.1022 11.2579 45.1022H53.5711C56.4922 45.1022 58.8602 42.7341 58.8602 39.813V13.3673C58.8602 10.4462 56.4922 8.07812 53.5711 8.07812Z" stroke="#EDF4FC" stroke-width="1.77538" stroke-linecap="round" stroke-linejoin="round"/>
</svg>
