<svg width="64" height="69" viewBox="0 0 64 69" fill="none" xmlns="http://www.w3.org/2000/svg">
<path d="M16.8154 14.3812C16.7629 13.204 16.9459 12.0281 17.3537 10.9228C17.7614 9.81755 18.3856 8.8051 19.1896 7.94504C19.9936 7.08498 20.9611 6.39468 22.0353 5.91474C23.1095 5.4348 24.2686 5.17491 25.4445 5.15036C26.6203 5.1258 27.7892 5.33707 28.8824 5.77175C29.9756 6.20643 30.971 6.85574 31.8101 7.68148C32.6492 8.50723 33.3149 9.49274 33.7683 10.5801C34.2216 11.6674 34.4534 12.8345 34.4499 14.0129V52.3127M16.8154 14.3812C15.087 14.8264 13.4823 15.6599 12.123 16.8185C10.7636 17.9771 9.68526 19.4305 8.96955 21.0684C8.25383 22.7064 7.91952 24.4861 7.99194 26.2727C8.06437 28.0593 8.54162 29.8059 9.38756 31.3804C7.90017 32.591 6.73056 34.1475 5.98046 35.9143C5.23036 37.6811 4.9225 39.6048 5.08366 41.518C5.24482 43.4312 5.87012 45.276 6.90516 46.8919C7.94021 48.5077 9.35364 49.8457 11.0225 50.7895C10.8164 52.387 10.9394 54.0099 11.3839 55.5579C11.8283 57.1059 12.5848 58.5462 13.6066 59.7898C14.6284 61.0335 15.8939 62.054 17.3248 62.7884C18.7557 63.5229 20.3217 63.9556 21.926 64.0599C23.5304 64.1642 25.1391 63.9379 26.6527 63.3949C28.1663 62.8519 29.5528 62.0038 30.7265 60.9029C31.9001 59.802 32.8361 58.4718 33.4765 56.9943C34.1169 55.5168 34.4482 53.9235 34.4499 52.3127M16.8154 14.3812C16.8736 15.8063 17.2751 17.1962 17.9857 18.4321M34.4499 52.3127L52.0933 52.3127C53.653 52.3127 55.1489 52.9335 56.2518 54.0385C57.3547 55.1435 57.9744 56.6422 57.9744 58.205V61.1511M25.6283 37.582C28.097 36.7119 30.2528 35.1278 31.823 33.0302C33.3933 30.9326 34.3074 28.4156 34.4499 25.7974M9.38756 31.3833C9.92551 30.9444 10.5012 30.5539 11.1078 30.2166M16.8066 52.3127C14.78 52.3136 12.7876 51.79 11.0225 50.7925M34.4499 37.582H46.2121M34.4499 22.8513H57.9744M46.2121 22.8513V14.0129C46.2121 12.4502 46.8318 10.9514 47.9347 9.84642C49.0376 8.74141 50.5335 8.12062 52.0933 8.12062M47.6824 37.582C47.6824 38.3955 47.0242 39.0551 46.2121 39.0551C45.4001 39.0551 44.7419 38.3955 44.7419 37.582C44.7419 36.7684 45.4001 36.1089 46.2121 36.1089C47.0242 36.1089 47.6824 36.7684 47.6824 37.582ZM53.5635 8.12062C53.5635 8.93417 52.9053 9.59369 52.0933 9.59369C51.2812 9.59369 50.623 8.93417 50.623 8.12062C50.623 7.30706 51.2812 6.64755 52.0933 6.64755C52.9053 6.64755 53.5635 7.30706 53.5635 8.12062ZM59.4446 61.1511C59.4446 61.9646 58.7864 62.6242 57.9744 62.6242C57.1624 62.6242 56.5041 61.9646 56.5041 61.1511C56.5041 60.3375 57.1624 59.678 57.9744 59.678C58.7864 59.678 59.4446 60.3375 59.4446 61.1511ZM59.4446 22.8513C59.4446 23.6649 58.7864 24.3244 57.9744 24.3244C57.1624 24.3244 56.5041 23.6649 56.5041 22.8513C56.5041 22.0378 57.1624 21.3782 57.9744 21.3782C58.7864 21.3782 59.4446 22.0378 59.4446 22.8513Z" stroke="#EDF4FC" stroke-width="1.77538" stroke-linecap="round" stroke-linejoin="round"/>
</svg>
