<svg width="38" height="38" viewBox="0 0 38 38" fill="none" xmlns="http://www.w3.org/2000/svg">
<rect width="38" height="38" rx="10" fill="white"/>
<path d="M26.2682 12.3261C24.9382 11.7061 23.4982 11.2561 21.9982 10.9961C21.9718 10.9965 21.9466 11.0073 21.9282 11.0261C21.7482 11.3561 21.5382 11.7861 21.3982 12.1161C19.8072 11.8762 18.1892 11.8762 16.5982 12.1161C16.4582 11.7761 16.2482 11.3561 16.0582 11.0261C16.0482 11.0061 16.0182 10.9961 15.9882 10.9961C14.4882 11.2561 13.0582 11.7061 11.7182 12.3261C11.7082 12.3261 11.6982 12.3361 11.6882 12.3461C8.96816 16.4161 8.21816 20.3761 8.58816 24.2961C8.58816 24.3161 8.59816 24.3361 8.61816 24.3461C10.4182 25.6661 12.1482 26.4661 13.8582 26.9961C13.8882 27.0061 13.9182 26.9961 13.9282 26.9761C14.3282 26.4261 14.6882 25.8461 14.9982 25.2361C15.0182 25.1961 14.9982 25.1561 14.9582 25.1461C14.3882 24.9261 13.8482 24.6661 13.3182 24.3661C13.2782 24.3461 13.2782 24.2861 13.3082 24.2561C13.4182 24.1761 13.5282 24.0861 13.6382 24.0061C13.6582 23.9861 13.6882 23.9861 13.7082 23.9961C17.1482 25.5661 20.8582 25.5661 24.2582 23.9961C24.2782 23.9861 24.3082 23.9861 24.3282 24.0061C24.4382 24.0961 24.5482 24.1761 24.6582 24.2661C24.6982 24.2961 24.6982 24.3561 24.6482 24.3761C24.1282 24.6861 23.5782 24.9361 23.0082 25.1561C22.9682 25.1661 22.9582 25.2161 22.9682 25.2461C23.2882 25.8561 23.6482 26.4361 24.0382 26.9861C24.0682 26.9961 24.0982 27.0061 24.1282 26.9961C25.8482 26.4661 27.5782 25.6661 29.3782 24.3461C29.3982 24.3361 29.4082 24.3161 29.4082 24.2961C29.8482 19.7661 28.6782 15.8361 26.3082 12.3461C26.2982 12.3361 26.2882 12.3261 26.2682 12.3261ZM15.5182 21.9061C14.4882 21.9061 13.6282 20.9561 13.6282 19.7861C13.6282 18.6161 14.4682 17.6661 15.5182 17.6661C16.5782 17.6661 17.4182 18.6261 17.4082 19.7861C17.4082 20.9561 16.5682 21.9061 15.5182 21.9061ZM22.4882 21.9061C21.4582 21.9061 20.5982 20.9561 20.5982 19.7861C20.5982 18.6161 21.4382 17.6661 22.4882 17.6661C23.5482 17.6661 24.3882 18.6261 24.3782 19.7861C24.3782 20.9561 23.5482 21.9061 22.4882 21.9061Z" fill="#7A76F8"/>
</svg>
