<svg width="38" height="38" viewBox="0 0 38 38" fill="none" xmlns="http://www.w3.org/2000/svg">
<rect width="38" height="38" rx="10" fill="white"/>
<path d="M26.0498 11.9101C25.1329 10.9842 24.0408 10.25 22.8373 9.75042C21.6338 9.25081 20.3429 8.99574 19.0398 9.00005C13.5798 9.00005 9.1298 13.4501 9.1298 18.9101C9.1298 20.6601 9.5898 22.3601 10.4498 23.8601L9.0498 29.0001L14.2998 27.6201C15.7498 28.4101 17.3798 28.8301 19.0398 28.8301C24.4998 28.8301 28.9498 24.3801 28.9498 18.9201C28.9498 16.2701 27.9198 13.7801 26.0498 11.9101ZM19.0398 27.1501C17.5598 27.1501 16.1098 26.7501 14.8398 26.0001L14.5398 25.8201L11.4198 26.6401L12.2498 23.6001L12.0498 23.2901C11.2274 21.9771 10.7907 20.4593 10.7898 18.9101C10.7898 14.3701 14.4898 10.6701 19.0298 10.6701C21.2298 10.6701 23.2998 11.5301 24.8498 13.0901C25.6174 13.8539 26.2257 14.7626 26.6394 15.7634C27.0531 16.7642 27.264 17.8371 27.2598 18.9201C27.2798 23.4601 23.5798 27.1501 19.0398 27.1501ZM23.5598 20.9901C23.3098 20.8701 22.0898 20.2701 21.8698 20.1801C21.6398 20.1001 21.4798 20.0601 21.3098 20.3001C21.1398 20.5501 20.6698 21.1101 20.5298 21.2701C20.3898 21.4401 20.2398 21.4601 19.9898 21.3301C19.7398 21.2101 18.9398 20.9401 17.9998 20.1001C17.2598 19.4401 16.7698 18.6301 16.6198 18.3801C16.4798 18.1301 16.5998 18.0001 16.7298 17.8701C16.8398 17.7601 16.9798 17.5801 17.0998 17.4401C17.2198 17.3001 17.2698 17.1901 17.3498 17.0301C17.4298 16.8601 17.3898 16.7201 17.3298 16.6001C17.2698 16.4801 16.7698 15.2601 16.5698 14.7601C16.3698 14.2801 16.1598 14.3401 16.0098 14.3301H15.5298C15.3598 14.3301 15.0998 14.3901 14.8698 14.6401C14.6498 14.8901 14.0098 15.4901 14.0098 16.7101C14.0098 17.9301 14.8998 19.1101 15.0198 19.2701C15.1398 19.4401 16.7698 21.9401 19.2498 23.0101C19.8398 23.2701 20.2998 23.4201 20.6598 23.5301C21.2498 23.7201 21.7898 23.6901 22.2198 23.6301C22.6998 23.5601 23.6898 23.0301 23.8898 22.4501C24.0998 21.8701 24.0998 21.3801 24.0298 21.2701C23.9598 21.1601 23.8098 21.1101 23.5598 20.9901Z" fill="#028A12"/>
</svg>
