<svg width="48" height="48" viewBox="0 0 48 48" fill="none" xmlns="http://www.w3.org/2000/svg">
<rect x="0.5" y="0.5" width="47" height="47" rx="23.5" stroke="white"/>
<path d="M20.2775 30.5393H17.4425V21.4159H20.2775V30.5393ZM18.8425 20.2959C17.9471 20.2959 17.3682 19.6616 17.3682 18.877C17.3682 18.0764 17.9646 17.4609 18.879 17.4609C19.7934 17.4609 20.3534 18.0764 20.3709 18.877C20.3709 19.6616 19.7934 20.2959 18.8425 20.2959ZM30.6317 30.5393H27.7967V25.4832C27.7967 24.3064 27.3855 23.5072 26.3602 23.5072C25.5771 23.5072 25.1119 24.0482 24.9063 24.5689C24.8305 24.7541 24.8115 25.0166 24.8115 25.2776V30.5378H21.975V24.3253C21.975 23.1864 21.9386 22.2341 21.9007 21.4145H24.3638L24.4936 22.6818H24.5505C24.9238 22.0868 25.8382 21.2089 27.368 21.2089C29.2332 21.2089 30.6317 22.4586 30.6317 25.1449V30.5393Z" fill="white"/>
</svg>
