<svg width="48" height="49" viewBox="0 0 48 49" fill="none" xmlns="http://www.w3.org/2000/svg">
<rect x="0.5" y="1" width="47" height="47" rx="23.5" stroke="#02385A"/>
<path d="M20.2775 31.0393H17.4425V21.9159H20.2775V31.0393ZM18.8425 20.7959C17.9471 20.7959 17.3682 20.1616 17.3682 19.377C17.3682 18.5764 17.9646 17.9609 18.879 17.9609C19.7934 17.9609 20.3534 18.5764 20.3709 19.377C20.3709 20.1616 19.7934 20.7959 18.8425 20.7959ZM30.6317 31.0393H27.7967V25.9832C27.7967 24.8064 27.3855 24.0072 26.3602 24.0072C25.5771 24.0072 25.1119 24.5482 24.9063 25.0689C24.8305 25.2541 24.8115 25.5166 24.8115 25.7776V31.0378H21.975V24.8253C21.975 23.6864 21.9386 22.7341 21.9007 21.9145H24.3638L24.4936 23.1818H24.5505C24.9238 22.5868 25.8382 21.7089 27.368 21.7089C29.2332 21.7089 30.6317 22.9586 30.6317 25.6449V31.0393Z" fill="#02385A"/>
</svg>
