<svg width="48" height="49" viewBox="0 0 48 49" fill="none" xmlns="http://www.w3.org/2000/svg">
<rect x="0.5" y="1" width="47" height="47" rx="23.5" stroke="#02385A"/>
<path d="M32.8568 15.6376C31.7049 14.4802 30.3329 13.5625 28.821 12.938C27.309 12.3135 25.6873 11.9947 24.0502 12.0001C17.191 12.0001 11.6005 17.5626 11.6005 24.3875C11.6005 26.575 12.1784 28.7 13.2588 30.575L11.5 37L18.0955 35.275C19.9171 36.2625 21.9648 36.7875 24.0502 36.7875C30.9095 36.7875 36.5 31.225 36.5 24.4C36.5 21.0875 35.206 17.9751 32.8568 15.6376ZM24.0502 34.6875C22.191 34.6875 20.3693 34.1875 18.7739 33.25L18.397 33.025L14.4774 34.05L15.5201 30.25L15.2688 29.8625C14.2356 28.2213 13.6871 26.3241 13.6859 24.3875C13.6859 18.7125 18.3342 14.0876 24.0377 14.0876C26.8015 14.0876 29.402 15.1626 31.3492 17.1126C32.3136 18.0674 33.0778 19.2032 33.5975 20.4542C34.1172 21.7052 34.3822 23.0464 34.3769 24.4C34.402 30.075 29.7538 34.6875 24.0502 34.6875ZM29.7286 26.9875C29.4146 26.8375 27.8819 26.0875 27.6055 25.975C27.3166 25.875 27.1156 25.825 26.902 26.125C26.6884 26.4375 26.098 27.1375 25.9221 27.3375C25.7462 27.55 25.5578 27.575 25.2437 27.4125C24.9296 27.2625 23.9246 26.925 22.7437 25.875C21.8141 25.05 21.1985 24.0375 21.01 23.725C20.8342 23.4125 20.9849 23.25 21.1482 23.0875C21.2864 22.95 21.4623 22.725 21.6131 22.55C21.7638 22.375 21.8266 22.2375 21.9271 22.0375C22.0276 21.825 21.9774 21.65 21.902 21.5C21.8266 21.35 21.1985 19.825 20.9472 19.2C20.696 18.6 20.4322 18.675 20.2437 18.6625H19.6407C19.4271 18.6625 19.1005 18.7375 18.8116 19.05C18.5352 19.3625 17.7312 20.1125 17.7312 21.6375C17.7312 23.1625 18.8492 24.6375 19 24.8375C19.1508 25.05 21.1985 28.175 24.3141 29.5125C25.0553 29.8375 25.6332 30.025 26.0854 30.1625C26.8266 30.4 27.505 30.3625 28.0452 30.2875C28.6482 30.2 29.892 29.5375 30.1432 28.8125C30.407 28.0875 30.407 27.475 30.3191 27.3375C30.2312 27.2 30.0427 27.1375 29.7286 26.9875Z" fill="#02385A"/>
</svg>
