<svg width="48" height="48" viewBox="0 0 48 48" fill="none" xmlns="http://www.w3.org/2000/svg">
<rect x="0.5" y="0.5" width="47" height="47" rx="23.5" stroke="white"/>
<path d="M32.8568 15.1376C31.7049 13.9802 30.3329 13.0625 28.821 12.438C27.309 11.8135 25.6873 11.4947 24.0502 11.5001C17.191 11.5001 11.6005 17.0626 11.6005 23.8875C11.6005 26.075 12.1784 28.2 13.2588 30.075L11.5 36.5L18.0955 34.775C19.9171 35.7625 21.9648 36.2875 24.0502 36.2875C30.9095 36.2875 36.5 30.725 36.5 23.9C36.5 20.5875 35.206 17.4751 32.8568 15.1376ZM24.0502 34.1875C22.191 34.1875 20.3693 33.6875 18.7739 32.75L18.397 32.525L14.4774 33.55L15.5201 29.75L15.2688 29.3625C14.2356 27.7213 13.6871 25.8241 13.6859 23.8875C13.6859 18.2125 18.3342 13.5876 24.0377 13.5876C26.8015 13.5876 29.402 14.6626 31.3492 16.6126C32.3136 17.5674 33.0778 18.7032 33.5975 19.9542C34.1172 21.2052 34.3822 22.5464 34.3769 23.9C34.402 29.575 29.7538 34.1875 24.0502 34.1875ZM29.7286 26.4875C29.4146 26.3375 27.8819 25.5875 27.6055 25.475C27.3166 25.375 27.1156 25.325 26.902 25.625C26.6884 25.9375 26.098 26.6375 25.9221 26.8375C25.7462 27.05 25.5578 27.075 25.2437 26.9125C24.9296 26.7625 23.9246 26.425 22.7437 25.375C21.8141 24.55 21.1985 23.5375 21.01 23.225C20.8342 22.9125 20.9849 22.75 21.1482 22.5875C21.2864 22.45 21.4623 22.225 21.6131 22.05C21.7638 21.875 21.8266 21.7375 21.9271 21.5375C22.0276 21.325 21.9774 21.15 21.902 21C21.8266 20.85 21.1985 19.325 20.9472 18.7C20.696 18.1001 20.4322 18.175 20.2437 18.1625H19.6407C19.4271 18.1625 19.1005 18.2375 18.8116 18.55C18.5352 18.8625 17.7312 19.6125 17.7312 21.1375C17.7312 22.6625 18.8492 24.1375 19 24.3375C19.1508 24.55 21.1985 27.675 24.3141 29.0125C25.0553 29.3375 25.6332 29.525 26.0854 29.6625C26.8266 29.9 27.505 29.8625 28.0452 29.7875C28.6482 29.7 29.892 29.0375 30.1432 28.3125C30.407 27.5875 30.407 26.975 30.3191 26.8375C30.2312 26.7 30.0427 26.6375 29.7286 26.4875Z" fill="white"/>
</svg>
