<svg width="48" height="49" viewBox="0 0 48 49" fill="none" xmlns="http://www.w3.org/2000/svg">
<rect x="0.5" y="1" width="47" height="47" rx="23.5" stroke="#02385A"/>
<path d="M31.9604 17.191C30.5037 16.512 28.9266 16.0191 27.2837 15.7344C27.2548 15.7348 27.2273 15.7466 27.2071 15.7672C27.0099 16.1287 26.7799 16.5996 26.6266 16.961C24.8841 16.6984 23.112 16.6984 21.3694 16.961C21.2161 16.5887 20.9861 16.1287 20.778 15.7672C20.7671 15.7453 20.7342 15.7344 20.7013 15.7344C19.0585 16.0191 17.4923 16.512 16.0247 17.191C16.0137 17.191 16.0028 17.202 15.9918 17.2129C13.0128 21.6706 12.1913 26.0077 12.5966 30.3011C12.5966 30.323 12.6075 30.3449 12.6294 30.3558C14.6009 31.8016 16.4956 32.6777 18.3685 33.2582C18.4013 33.2692 18.4342 33.2582 18.4451 33.2363C18.8832 32.6339 19.2775 31.9987 19.6171 31.3306C19.639 31.2868 19.6171 31.243 19.5732 31.232C18.949 30.9911 18.3575 30.7063 17.777 30.3777C17.7332 30.3558 17.7332 30.2901 17.7661 30.2573C17.8866 30.1696 18.0071 30.0711 18.1275 29.9835C18.1494 29.9616 18.1823 29.9616 18.2042 29.9725C21.9718 31.692 26.0352 31.692 29.759 29.9725C29.7809 29.9616 29.8137 29.9616 29.8356 29.9835C29.9561 30.082 30.0766 30.1696 30.1971 30.2682C30.2409 30.3011 30.2409 30.3668 30.1861 30.3887C29.6166 30.7282 29.0142 31.002 28.3899 31.243C28.3461 31.2539 28.3352 31.3087 28.3461 31.3416C28.6966 32.0096 29.0909 32.6449 29.518 33.2473C29.5509 33.2582 29.5837 33.2692 29.6166 33.2582C31.5004 32.6777 33.3952 31.8016 35.3666 30.3558C35.3885 30.3449 35.3995 30.323 35.3995 30.3011C35.8814 25.3396 34.5999 21.0353 32.0042 17.2129C31.9933 17.202 31.9823 17.191 31.9604 17.191ZM20.1866 27.6834C19.0585 27.6834 18.1166 26.643 18.1166 25.3615C18.1166 24.0801 19.0366 23.0396 20.1866 23.0396C21.3475 23.0396 22.2675 24.0911 22.2566 25.3615C22.2566 26.643 21.3366 27.6834 20.1866 27.6834ZM27.8204 27.6834C26.6923 27.6834 25.7504 26.643 25.7504 25.3615C25.7504 24.0801 26.6704 23.0396 27.8204 23.0396C28.9814 23.0396 29.9014 24.0911 29.8904 25.3615C29.8904 26.643 28.9814 27.6834 27.8204 27.6834Z" fill="#02385A"/>
</svg>
