<svg width="48" height="48" viewBox="0 0 48 48" fill="none" xmlns="http://www.w3.org/2000/svg">
<rect x="0.5" y="0.5" width="47" height="47" rx="23.5" stroke="white"/>
<path d="M31.9604 16.691C30.5037 16.012 28.9266 15.5191 27.2837 15.2344C27.2548 15.2348 27.2273 15.2466 27.2071 15.2672C27.0099 15.6287 26.7799 16.0996 26.6266 16.461C24.8841 16.1984 23.112 16.1984 21.3694 16.461C21.2161 16.0887 20.9861 15.6287 20.778 15.2672C20.7671 15.2453 20.7342 15.2344 20.7013 15.2344C19.0585 15.5191 17.4923 16.012 16.0247 16.691C16.0137 16.691 16.0028 16.702 15.9918 16.7129C13.0128 21.1706 12.1913 25.5077 12.5966 29.8011C12.5966 29.823 12.6075 29.8449 12.6294 29.8558C14.6009 31.3016 16.4956 32.1777 18.3685 32.7582C18.4013 32.7692 18.4342 32.7582 18.4451 32.7363C18.8832 32.1339 19.2775 31.4987 19.6171 30.8306C19.639 30.7868 19.6171 30.743 19.5732 30.732C18.949 30.4911 18.3575 30.2063 17.777 29.8777C17.7332 29.8558 17.7332 29.7901 17.7661 29.7573C17.8866 29.6696 18.007 29.5711 18.1275 29.4835C18.1494 29.4616 18.1823 29.4616 18.2042 29.4725C21.9718 31.192 26.0352 31.192 29.759 29.4725C29.7809 29.4616 29.8137 29.4616 29.8356 29.4835C29.9561 29.582 30.0766 29.6696 30.1971 29.7682C30.2409 29.8011 30.2409 29.8668 30.1861 29.8887C29.6166 30.2282 29.0142 30.502 28.3899 30.743C28.3461 30.7539 28.3352 30.8087 28.3461 30.8416C28.6966 31.5097 29.0909 32.1449 29.518 32.7473C29.5509 32.7582 29.5837 32.7692 29.6166 32.7582C31.5004 32.1777 33.3952 31.3016 35.3666 29.8558C35.3885 29.8449 35.3995 29.823 35.3995 29.8011C35.8814 24.8396 34.5999 20.5353 32.0042 16.7129C31.9933 16.702 31.9823 16.691 31.9604 16.691ZM20.1866 27.1834C19.0585 27.1834 18.1166 26.143 18.1166 24.8615C18.1166 23.5801 19.0366 22.5396 20.1866 22.5396C21.3475 22.5396 22.2675 23.5911 22.2566 24.8615C22.2566 26.143 21.3366 27.1834 20.1866 27.1834ZM27.8204 27.1834C26.6923 27.1834 25.7504 26.143 25.7504 24.8615C25.7504 23.5801 26.6704 22.5396 27.8204 22.5396C28.9814 22.5396 29.9014 23.5911 29.8904 24.8615C29.8904 26.143 28.9814 27.1834 27.8204 27.1834Z" fill="white"/>
</svg>
